<?xml version="1.0" encoding="UTF-8"?>
<svg width="144px" height="18px" viewBox="0 0 144 18" version="1.1" xmlns="http://www.w3.org/2000/svg" xmlns:xlink="http://www.w3.org/1999/xlink">
    <!-- Generator: Sketch 42 (36781) - http://www.bohemiancoding.com/sketch -->
    <title>Group 6</title>
    <desc>Created with Sketch.</desc>
    <defs></defs>
    <g id="Page-1" stroke="none" stroke-width="1" fill="none" fill-rule="evenodd">
        <g id="Home" transform="translate(-61.000000, -29.000000)">
            <g id="Group-6" transform="translate(61.000000, 29.000000)">
                <path d="M6.44431858,3.54664286 L4.73415929,11.6228571 L9.34343363,11.6228571 L7.6339115,3.54664286 L6.44431858,3.54664286 Z M0,17.6997857 L3.79242478,0.695571429 L10.2858053,0.695571429 L14.0782301,17.6997857 L10.6572743,17.6997857 L9.98824779,14.6237143 L4.08934513,14.6237143 L3.42031858,17.6997857 L0,17.6997857 L0,17.6997857 Z" id="Fill-6" fill="#D9252A"></path>
                <path d="M20.5467611,4.89728571 C21.4056637,4.89728571 22.5047788,5.03035714 23.8428319,5.29714286 L24.5124956,5.44692857 L24.4130973,8.09742857 C23.1075398,7.96435714 22.1409558,7.8975 21.512708,7.8975 C20.3734513,7.8975 19.6171327,8.14307143 19.2456637,8.63485714 C18.8735575,9.12728571 18.6875044,10.0562143 18.6875044,11.4235714 C18.6875044,12.7902857 18.8735575,13.7282143 19.2456637,14.2360714 C19.6171327,14.7452143 20.3810973,14.9985 21.5381947,14.9985 L24.4130973,14.7992143 L24.5124956,17.4747857 C22.744354,17.8245 21.3973805,18 20.4722124,18 C18.6378053,18 17.3207788,17.4786429 16.5192212,16.4372143 C15.7176637,15.3957857 15.316885,13.7237143 15.316885,11.4235714 C15.316885,9.12278571 15.7297699,7.45971429 16.556177,6.43435714 C17.3819469,5.409 18.712354,4.89728571 20.5467611,4.89728571" id="Fill-7" fill="#D9252A"></path>
                <path d="M33.8559292,10.323 C33.8559292,9.32271429 33.6991858,8.6265 33.3850619,8.235 C33.0709381,7.8435 32.5210619,7.64742857 31.736708,7.64742857 C30.9517168,7.64742857 30.3986549,7.85185714 30.0762478,8.26007143 C29.7538407,8.66828571 29.584354,9.35614286 29.5684248,10.323 L33.8559292,10.323 Z M30.2004956,14.5369286 C30.588531,14.8789286 31.1460531,15.0486429 31.8730619,15.0486429 C33.4099115,15.0486429 34.7810973,14.9985 35.9872566,14.8995 L36.6811327,14.8242857 L36.7308319,17.2992857 C34.8307965,17.766 33.112354,18 31.5755044,18 C29.7086018,18 28.3539823,17.4998571 27.5110088,16.4989286 C26.6686726,15.4992857 26.2468673,13.8735 26.2468673,11.6228571 C26.2468673,7.13957143 28.0729912,4.89728571 31.7239646,4.89728571 C35.3265133,4.89728571 37.1277876,6.78085714 37.1277876,10.548 L36.8799292,12.8738571 L29.5926372,12.8738571 C29.6092035,13.6407857 29.811823,14.1949286 30.2004956,14.5369286 L30.2004956,14.5369286 Z" id="Fill-8" fill="#D9252A"></path>
                <path d="M50.4363186,3.39685714 C48.6350442,3.39685714 47.7347257,3.996 47.7347257,5.19621429 C47.7347257,5.73042857 47.9583717,6.13864286 48.4037522,6.42278571 C48.8497699,6.70564286 49.8953628,7.11385714 51.5392566,7.64742857 C53.1831504,8.18164286 54.3357876,8.78464286 54.996531,9.46028571 C55.6572743,10.1352857 55.9879646,11.1728571 55.9879646,12.5736429 C55.9879646,14.3575714 55.4508319,15.7075714 54.3772035,16.6242857 C53.3029381,17.541 51.8986195,18 50.1636106,18 C48.8746195,18 47.2969912,17.8000714 45.4300885,17.3995714 L44.5380531,17.2247143 L44.8846726,14.5491429 C47.0981947,14.8493571 48.7917876,14.9985 49.9654513,14.9985 C51.7163894,14.9985 52.5924956,14.2662857 52.5924956,12.7986429 C52.5924956,12.2644286 52.3898761,11.8485 51.9852743,11.5482857 C51.5800354,11.2480714 50.7746549,10.9234286 49.5691327,10.5730714 C47.6518938,10.0227857 46.3010973,9.369 45.5167434,8.61042857 C44.7317522,7.85185714 44.3392566,6.79757143 44.3392566,5.44692857 C44.3392566,3.74657143 44.8515398,2.48014286 45.8761062,1.64571429 C46.9000354,0.812571429 48.3049912,0.396 50.0896991,0.396 C51.3124248,0.396 52.8652035,0.5625 54.7486726,0.8955 L55.6413451,1.07035714 L55.3686372,3.79607143 C53.0391504,3.53057143 51.3939823,3.39685714 50.4363186,3.39685714" id="Fill-9" fill="#FFFFFF"></path>
                <path d="M61.6759646,14.2489286 C62.0143009,14.8493571 62.6215221,15.1489286 63.4976283,15.1489286 C64.3730973,15.1489286 64.9803186,14.8493571 65.319292,14.2489286 C65.6576283,13.6491429 65.8277522,12.7073571 65.8277522,11.4235714 C65.8277522,10.1397857 65.6576283,9.20635714 65.319292,8.62264286 C64.9803186,8.03957143 64.3730973,7.74707143 63.4976283,7.74707143 C62.6215221,7.74707143 62.0143009,8.03957143 61.6759646,8.62264286 C61.3369912,9.20635714 61.1675044,10.1397857 61.1675044,11.4235714 C61.1675044,12.7073571 61.3369912,13.6491429 61.6759646,14.2489286 Z M59.1107257,6.60985714 C59.9861947,5.4675 61.4484956,4.89728571 63.4976283,4.89728571 C65.5461239,4.89728571 67.0084248,5.4675 67.884531,6.60985714 C68.76,7.75221429 69.1983717,9.35614286 69.1983717,11.4235714 C69.1983717,15.8078571 67.2976991,18 63.4976283,18 C59.6969204,18 57.796885,15.8078571 57.796885,11.4235714 C57.796885,9.35614286 58.2346195,7.75221429 59.1107257,6.60985714 L59.1107257,6.60985714 Z" id="Fill-10" fill="#FFFFFF"></path>
                <polygon id="Fill-11" fill="#FFFFFF" points="71.7757168 17.6997857 75.096 17.6997857 75.096 0.195428571 71.7757168 0.195428571"></polygon>
                <path d="M85.6296637,5.19621429 L88.9505841,5.19621429 L88.9505841,17.6997857 L85.6551504,17.6997857 L85.6551504,17.0003571 C84.4649204,17.667 83.4320708,18 82.5559646,18 C80.8381593,18 79.6816991,17.5204286 79.0865841,16.5619286 C78.491469,15.6040714 78.1945487,13.9988571 78.1945487,11.7482143 L78.1945487,5.19621429 L81.515469,5.19621429 L81.515469,11.7983571 C81.515469,13.032 81.6148673,13.8735 81.8130265,14.3247857 C82.011823,14.7741429 82.4909735,14.9985 83.2504779,14.9985 C83.9774867,14.9985 84.6637168,14.8834286 85.3078938,14.6487857 L85.6296637,14.5491429 L85.6296637,5.19621429" id="Fill-12" fill="#FFFFFF"></path>
                <path d="M98.8897699,8.04792857 L95.8409204,8.04792857 L95.8409204,13.1740714 C95.8409204,13.6735714 95.8536637,14.0284286 95.8778761,14.2360714 C95.9033628,14.445 95.9938407,14.6237143 96.1512212,14.7741429 C96.3073274,14.9239286 96.5513628,14.9985 96.8820531,14.9985 L98.7655221,14.9483571 L98.9139823,17.6245714 C97.8078584,17.8746429 96.964885,18 96.3863363,18 C94.8991858,18 93.8829027,17.6625 93.3381239,16.9868571 C92.792708,16.3118571 92.52,15.066 92.52,13.2486429 L92.52,8.04792857 L91.0576991,8.04792857 L91.0576991,5.19621429 L92.52,5.19621429 L92.52,1.72092857 L95.8409204,1.72092857 L95.8409204,5.19621429 L98.8897699,5.19621429 L98.8897699,8.04792857" id="Fill-13" fill="#FFFFFF"></path>
                <path d="M101.045947,17.6997857 L104.366867,17.6997857 L104.366867,5.19621429 L101.045947,5.19621429 L101.045947,17.6997857 Z M101.045947,3.59678571 L104.366867,3.59678571 L104.366867,0.195428571 L101.045947,0.195428571 L101.045947,3.59678571 Z" id="Fill-14" fill="#FFFFFF"></path>
                <path d="M110.674195,14.2489286 C111.012531,14.8493571 111.620389,15.1489286 112.496496,15.1489286 C113.371965,15.1489286 113.979186,14.8493571 114.318159,14.2489286 C114.655858,13.6491429 114.825982,12.7073571 114.825982,11.4235714 C114.825982,10.1397857 114.655858,9.20635714 114.318159,8.62264286 C113.979186,8.03957143 113.371965,7.74707143 112.496496,7.74707143 C111.620389,7.74707143 111.012531,8.03957143 110.674195,8.62264286 C110.335858,9.20635714 110.165735,10.1397857 110.165735,11.4235714 C110.165735,12.7073571 110.335858,13.6491429 110.674195,14.2489286 Z M108.109593,6.60985714 C108.984425,5.4675 110.446726,4.89728571 112.496496,4.89728571 C114.544354,4.89728571 116.006655,5.4675 116.882761,6.60985714 C117.75823,7.75221429 118.196602,9.35614286 118.196602,11.4235714 C118.196602,15.8078571 116.295929,18 112.496496,18 C108.69515,18 106.795115,15.8078571 106.795115,11.4235714 C106.795115,9.35614286 107.23285,7.75221429 108.109593,6.60985714 L108.109593,6.60985714 Z" id="Fill-15" fill="#FFFFFF"></path>
                <path d="M123.946407,17.6997857 L120.625487,17.6997857 L120.625487,5.19621429 L123.921558,5.19621429 L123.921558,5.89692857 C125.044885,5.23028571 126.077735,4.89728571 127.018832,4.89728571 C128.671009,4.89728571 129.810903,5.38842857 130.439788,6.372 C131.067398,7.35621429 131.381522,8.87207143 131.381522,10.9234286 L131.381522,17.6997857 L128.059965,17.6997857 L128.059965,11.0230714 C128.059965,9.95721429 127.935717,9.16907143 127.688496,8.65992857 C127.440637,8.15142857 126.944283,7.8975 126.201345,7.8975 C125.524035,7.8975 124.870301,8.01385714 124.243965,8.24721429 L123.946407,8.3475 L123.946407,17.6997857" id="Fill-16" fill="#FFFFFF"></path>
                <path d="M143.228389,8.32307143 C141.179257,8.05628571 139.745628,7.92257143 138.928142,7.92257143 C138.110655,7.92257143 137.581168,7.99778571 137.34223,8.14757143 C137.102018,8.29735714 136.982867,8.53521429 136.982867,8.8605 C136.982867,9.18514286 137.143434,9.41014286 137.466478,9.5355 C137.788248,9.66085714 138.614018,9.84407143 139.944425,10.0857857 C141.274195,10.3275 142.220389,10.7235 142.782372,11.2725 C143.344354,11.8234286 143.625345,12.7157143 143.625345,13.9487143 C143.625345,16.65 141.964885,18 138.643327,18 C137.553133,18 136.231009,17.8502143 134.677593,17.5493571 L133.884319,17.3995714 L133.983717,14.5992857 C136.032212,14.8654286 137.45692,14.9985 138.259115,14.9985 C139.060035,14.9985 139.605451,14.9200714 139.894726,14.7612857 C140.183363,14.6037857 140.328,14.3659286 140.328,14.049 C140.328,13.7327143 140.175717,13.4987143 139.869876,13.3489286 C139.564673,13.1991429 138.770761,13.0152857 137.49069,12.7986429 C136.209982,12.5826429 135.255504,12.2149286 134.627894,11.6980714 C134.000283,11.1818571 133.686159,10.26 133.686159,8.93507143 C133.686159,7.6095 134.132814,6.60985714 135.02485,5.93485714 C135.916248,5.25921429 137.065062,4.92171429 138.469381,4.92171429 C139.444248,4.92171429 140.774655,5.0805 142.459965,5.39678571 L143.278088,5.54657143 L143.228389,8.32307143" id="Fill-17" fill="#FFFFFF"></path>
            </g>
        </g>
    </g>
</svg>