<?xml version="1.0" encoding="UTF-8"?>
<svg width="206px" height="187px" viewBox="0 0 206 187" version="1.1" xmlns="http://www.w3.org/2000/svg" xmlns:xlink="http://www.w3.org/1999/xlink">
    <!-- Generator: Sketch 42 (36781) - http://www.bohemiancoding.com/sketch -->
    <title>Ace Solutions Logo</title>
    <desc>Created with Sketch.</desc>
    <defs>
        <polygon id="path-1" points="205.464035 58.4465777 205.464035 116.139709 0.0546902655 116.139709 0.0546902655 0.753446602 205.464035 0.753446602 205.464035 58.4465777"></polygon>
    </defs>
    <g id="Page-1" stroke="none" stroke-width="1" fill="none" fill-rule="evenodd">
        <g id="Home" transform="translate(-617.000000, -241.000000)">
            <g id="Ace-Solutions-Logo" transform="translate(617.000000, 241.000000)">
                <polyline id="Fill-1" fill="#FFFFFF" points="102.975389 33.1244175 121.007681 64.2290534 140.928611 64.2290534 102.975389 0.726213592 65.0212566 64.2290534 84.9421858 64.2290534 102.975389 33.1244175"></polyline>
                <g id="Group-18" transform="translate(0.000000, 69.898058)">
                    <mask id="mask-2" fill="white">
                        <use xlink:href="#path-1"></use>
                    </mask>
                    <g id="Clip-3"></g>
                    <polyline id="Fill-2" fill="#FFFFFF" mask="url(#mask-2)" points="162.709009 0.753446602 124.731177 0.753446602 134.30015 17.2593738 154.632168 17.2593738 179.008531 58.0435291 112.77315 58.0435291 103.204177 74.5476408 205.464035 74.5476408 162.709009 0.753446602"></polyline>
                    <polyline id="Fill-4" fill="#FFFFFF" mask="url(#mask-2)" points="26.9422478 58.0435291 51.3660088 17.2593738 71.6497168 17.2593738 81.2186903 0.753446602 42.7823717 0.753446602 0 74.5476408 103.204177 74.5476408 93.636115 58.0435291 26.9422478 58.0435291"></polyline>
                    <polyline id="Fill-5" fill="#D9252A" mask="url(#mask-2)" points="138.023646 23.6818252 153.697876 23.6818252 170.394814 51.6201699 154.20923 51.6201699 138.023646 23.6818252"></polyline>
                    <path d="M9.21895575,95.7848495 L6.77247788,107.189126 L13.3663009,107.189126 L10.9207345,95.7848495 L9.21895575,95.7848495 Z M0,115.770248 L5.42527434,91.7589029 L14.7144159,91.7589029 L20.1396903,115.770248 L15.245823,115.770248 L14.2887434,111.426583 L5.8500354,111.426583 L4.89295575,115.770248 L0,115.770248 L0,115.770248 Z" id="Fill-6" fill="#D9252A" mask="url(#mask-2)"></path>
                    <path d="M29.3932832,97.692068 C30.6219912,97.692068 32.1943363,97.8799757 34.1084956,98.256699 L35.0664867,98.4682087 L34.924292,102.210932 C33.0566195,102.023024 31.6738673,101.928617 30.7751239,101.928617 C29.145354,101.928617 28.0633982,102.275383 27.5319912,102.969825 C26.9996726,103.665175 26.7335133,104.976898 26.7335133,106.907718 C26.7335133,108.837631 26.9996726,110.162063 27.5319912,110.879199 C28.0633982,111.59815 29.156292,111.955811 30.8115841,111.955811 L34.924292,111.674403 L35.0664867,115.452529 C32.5370619,115.946354 30.6101416,116.194175 29.2866372,116.194175 C26.6624159,116.194175 24.7783363,115.457976 23.6316637,113.987393 C22.4849912,112.516811 21.9116549,110.155709 21.9116549,106.907718 C21.9116549,103.65882 22.5023097,101.310427 23.684531,99.8625388 C24.8658407,98.4146505 26.7690619,97.692068 29.3932832,97.692068" id="Fill-7" fill="#D9252A" mask="url(#mask-2)"></path>
                    <path d="M48.4327876,105.353621 C48.4327876,103.941136 48.2085575,102.958024 47.7591858,102.405194 C47.3098142,101.852364 46.5231858,101.575495 45.4011239,101.575495 C44.2781504,101.575495 43.4869646,101.864165 43.0257434,102.440597 C42.5645221,103.017029 42.3220619,103.98834 42.2992743,105.353621 L48.4327876,105.353621 Z M43.2034867,111.304034 C43.7585929,111.786966 44.5561593,112.026617 45.5961858,112.026617 C47.7947345,112.026617 49.756292,111.955811 51.4817699,111.816015 L52.4743982,111.709806 L52.5454956,115.204709 C49.8273894,115.863748 47.3690619,116.194175 45.1705133,116.194175 C42.4998053,116.194175 40.5619469,115.487932 39.3560265,114.074539 C38.1510177,112.662961 37.5476018,110.367218 37.5476018,107.189126 C37.5476018,100.858359 40.1599735,97.692068 45.3828938,97.692068 C50.5365398,97.692068 53.1133628,100.351825 53.1133628,105.67134 L52.7587876,108.955641 L42.3339115,108.955641 C42.3576106,110.038607 42.647469,110.821102 43.2034867,111.304034 L43.2034867,111.304034 Z" id="Fill-8" fill="#D9252A" mask="url(#mask-2)"></path>
                    <path d="M72.1519558,95.5733398 C69.5751327,95.5733398 68.287177,96.4193786 68.287177,98.1141796 C68.287177,98.868534 68.607115,99.444966 69.2442566,99.846199 C69.8823097,100.245617 71.3780885,100.822049 73.7297699,101.575495 C76.0814513,102.32985 77.7303628,103.181335 78.6755929,104.135398 C79.620823,105.088553 80.0938938,106.553689 80.0938938,108.531714 C80.0938938,111.050767 79.3254956,112.957078 77.7896106,114.251553 C76.2528142,115.546029 74.2438584,116.194175 71.7618319,116.194175 C69.9178584,116.194175 67.6609735,115.911859 64.9902655,115.34632 L63.7141593,115.099408 L64.2100177,111.321282 C67.3765841,111.745209 69.7993628,111.955811 71.478354,111.955811 C73.9831681,111.955811 75.2364867,110.921864 75.2364867,108.849432 C75.2364867,108.095078 74.9466283,107.507752 74.367823,107.083825 C73.7881062,106.659898 72.6359646,106.201476 70.9113982,105.706743 C68.1686814,104.929694 66.236292,104.006495 65.1142301,102.93533 C63.9912566,101.864165 63.4297699,100.375427 63.4297699,98.4682087 C63.4297699,96.067165 64.1626195,94.2788641 65.6283186,93.1005825 C67.0931062,91.9241165 69.1029735,91.3358835 71.6560973,91.3358835 C73.4052743,91.3358835 75.6266106,91.5709951 78.3210177,92.0412184 L79.5980354,92.2881311 L79.2079115,96.1370631 C75.8754513,95.7621553 73.5219469,95.5733398 72.1519558,95.5733398" id="Fill-9" fill="#FFFFFF" mask="url(#mask-2)"></path>
                    <path d="M88.2308938,110.897354 C88.7149027,111.745209 89.5835664,112.168228 90.836885,112.168228 C92.089292,112.168228 92.9579558,111.745209 93.4428761,110.897354 C93.926885,110.050408 94.1702566,108.720529 94.1702566,106.907718 C94.1702566,105.094908 93.926885,103.77683 93.4428761,102.952578 C92.9579558,102.129233 92.089292,101.716199 90.836885,101.716199 C89.5835664,101.716199 88.7149027,102.129233 88.2308938,102.952578 C87.7459735,103.77683 87.5035133,105.094908 87.5035133,106.907718 C87.5035133,108.720529 87.7459735,110.050408 88.2308938,110.897354 Z M84.561177,100.110359 C85.8135841,98.4972573 87.9054867,97.692068 90.836885,97.692068 C93.7673717,97.692068 95.8592743,98.4972573 97.1125929,100.110359 C98.365,101.723461 98.992115,103.98834 98.992115,106.907718 C98.992115,113.098689 96.2730973,116.194175 90.836885,116.194175 C85.3997611,116.194175 82.6816549,113.098689 82.6816549,106.907718 C82.6816549,103.98834 83.3078584,101.723461 84.561177,100.110359 L84.561177,100.110359 Z" id="Fill-10" fill="#FFFFFF" mask="url(#mask-2)"></path>
                    <polygon id="Fill-11" fill="#FFFFFF" mask="url(#mask-2)" points="102.67915 115.770248 107.429 115.770248 107.429 91.0526602 102.67915 91.0526602"></polygon>
                    <path d="M122.497991,98.1141796 L127.248752,98.1141796 L127.248752,115.770248 L122.534451,115.770248 L122.534451,114.782597 C120.831761,115.723951 119.354212,116.194175 118.100894,116.194175 C115.643478,116.194175 113.989097,115.516981 113.137752,114.1635 C112.286407,112.810927 111.861646,110.544233 111.861646,107.366141 L111.861646,98.1141796 L116.612407,98.1141796 L116.612407,107.436947 C116.612407,109.178951 116.754602,110.367218 117.03808,111.004471 C117.322469,111.639 118.00792,111.955811 119.094434,111.955811 C120.13446,111.955811 121.11615,111.79332 122.037681,111.461985 L122.497991,111.321282 L122.497991,98.1141796" id="Fill-12" fill="#FFFFFF" mask="url(#mask-2)"></path>
                    <path d="M141.46731,102.141034 L137.105761,102.141034 L137.105761,109.379568 C137.105761,110.084903 137.123991,110.58599 137.158628,110.879199 C137.195088,111.174223 137.324522,111.426583 137.549664,111.639 C137.772982,111.85051 138.122088,111.955811 138.595159,111.955811 L141.289566,111.885005 L141.501947,115.664039 C139.919575,116.01716 138.713655,116.194175 137.886009,116.194175 C135.758558,116.194175 134.304708,115.717597 133.525372,114.763534 C132.745124,113.810379 132.355,112.051126 132.355,109.484869 L132.355,102.141034 L130.263097,102.141034 L130.263097,98.1141796 L132.355,98.1141796 L132.355,93.2067913 L137.105761,93.2067913 L137.105761,98.1141796 L141.46731,98.1141796 L141.46731,102.141034" id="Fill-13" fill="#FFFFFF" mask="url(#mask-2)"></path>
                    <path d="M144.551841,115.770248 L149.302602,115.770248 L149.302602,98.1141796 L144.551841,98.1141796 L144.551841,115.770248 Z M144.551841,95.8556553 L149.302602,95.8556553 L149.302602,91.0526602 L144.551841,91.0526602 L144.551841,95.8556553 Z" id="Fill-14" fill="#FFFFFF" mask="url(#mask-2)"></path>
                    <path d="M158.325584,110.897354 C158.809593,111.745209 159.679168,112.168228 160.932487,112.168228 C162.184894,112.168228 163.053558,111.745209 163.538478,110.897354 C164.021575,110.050408 164.264947,108.720529 164.264947,106.907718 C164.264947,105.094908 164.021575,103.77683 163.538478,102.952578 C163.053558,102.129233 162.184894,101.716199 160.932487,101.716199 C159.679168,101.716199 158.809593,102.129233 158.325584,102.952578 C157.841575,103.77683 157.598204,105.094908 157.598204,106.907718 C157.598204,108.720529 157.841575,110.050408 158.325584,110.897354 Z M154.656779,100.110359 C155.908274,98.4972573 158.000177,97.692068 160.932487,97.692068 C163.862062,97.692068 165.953965,98.4972573 167.207283,100.110359 C168.45969,101.723461 169.086805,103.98834 169.086805,106.907718 C169.086805,113.098689 166.367788,116.194175 160.932487,116.194175 C155.494451,116.194175 152.776345,113.098689 152.776345,106.907718 C152.776345,103.98834 153.402549,101.723461 154.656779,100.110359 L154.656779,100.110359 Z" id="Fill-15" fill="#FFFFFF" mask="url(#mask-2)"></path>
                    <path d="M177.312221,115.770248 L172.56146,115.770248 L172.56146,98.1141796 L177.276673,98.1141796 L177.276673,99.1036456 C178.883655,98.1622913 180.361204,97.692068 181.707496,97.692068 C184.071027,97.692068 185.701708,98.3856019 186.601363,99.7744854 C187.499195,101.164277 187.948566,103.304791 187.948566,106.201476 L187.948566,115.770248 L183.196894,115.770248 L183.196894,106.34218 C183.196894,104.837102 183.01915,103.72418 182.665487,103.005228 C182.310912,102.287184 181.60085,101.928617 180.538035,101.928617 C179.569106,101.928617 178.633903,102.092922 177.737894,102.422442 L177.312221,102.564053 L177.312221,115.770248" id="Fill-16" fill="#FFFFFF" mask="url(#mask-2)"></path>
                    <path d="M204.896168,102.529558 C201.96477,102.152835 199.913885,101.964019 198.744425,101.964019 C197.574965,101.964019 196.817504,102.070228 196.47569,102.281738 C196.132053,102.493248 195.961602,102.829121 195.961602,103.288451 C195.961602,103.746874 196.191301,104.064592 196.653434,104.241607 C197.113743,104.418621 198.295053,104.677335 200.198274,105.018655 C202.100584,105.359976 203.454168,105.91916 204.258115,106.694393 C205.062062,107.47235 205.464035,108.73233 205.464035,110.473427 C205.464035,114.287864 203.088655,116.194175 198.336982,116.194175 C196.777398,116.194175 194.886027,115.982665 192.663779,115.55783 L191.528956,115.34632 L191.67115,111.392087 C194.601637,111.767903 196.639761,111.955811 197.787345,111.955811 C198.933106,111.955811 199.713354,111.845063 200.127177,111.620845 C200.540088,111.398442 200.747,111.062568 200.747,110.615039 C200.747,110.168417 200.52915,109.83799 200.091628,109.626481 C199.655018,109.414971 198.519283,109.15535 196.688071,108.849432 C194.855947,108.544422 193.490513,108.02518 192.592681,107.295335 C191.69485,106.566398 191.245478,105.26466 191.245478,103.393752 C191.245478,101.521937 191.884442,100.110359 193.160549,99.1572039 C194.435743,98.2031408 196.079186,97.7265631 198.088142,97.7265631 C199.482743,97.7265631 201.385965,97.9507816 203.796894,98.3974029 L204.967265,98.6089126 L204.896168,102.529558" id="Fill-17" fill="#FFFFFF" mask="url(#mask-2)"></path>
                </g>
            </g>
        </g>
    </g>
</svg>